<?xml version="1.0" standalone="no"?>
<!DOCTYPE svg PUBLIC "-//W3C//DTD SVG 20010904//EN"
 "http://www.w3.org/TR/2001/REC-SVG-20010904/DTD/svg10.dtd">
<svg version="1.0" xmlns="http://www.w3.org/2000/svg"
 width="2048.000000pt" height="2048.000000pt" viewBox="0 0 2048.000000 2048.000000"
 preserveAspectRatio="xMidYMid meet">
<metadata>
Created by potrace 1.14, written by Peter Selinger 2001-2017
</metadata>
<g transform="translate(0.000000,2048.000000) scale(0.100000,-0.100000)"
fill="#000000" stroke="none">
<path d="M0 10240 l0 -10240 10240 0 10240 0 0 10240 0 10240 -10240 0 -10240
0 0 -10240z m9683 5593 c-46 -2 -120 -2 -165 0 -46 1 -9 3 82 3 91 0 128 -2
83 -3z m-1140 -10 c-13 -2 -33 -2 -45 0 -13 2 -3 4 22 4 25 0 35 -2 23 -4z
m85 0 c-10 -2 -26 -2 -35 0 -10 3 -2 5 17 5 19 0 27 -2 18 -5z m85 0 c-7 -2
-19 -2 -25 0 -7 3 -2 5 12 5 14 0 19 -2 13 -5z m1742 -3 c628 -29 1050 -119
1431 -306 697 -341 1145 -979 1239 -1764 17 -137 19 -452 4 -588 -43 -401
-198 -797 -433 -1107 -157 -207 -408 -424 -654 -567 -91 -53 -285 -148 -301
-148 -21 0 -20 -21 2 -57 48 -76 936 -1601 960 -1649 56 -110 72 -187 72 -344
0 -124 -3 -156 -23 -220 -91 -288 -303 -487 -592 -555 -91 -21 -802 -22 -902
0 -142 30 -264 94 -375 199 -89 83 -125 138 -283 426 -67 124 -134 245 -148
270 -26 47 -436 794 -489 890 -16 30 -52 96 -80 145 -27 50 -69 133 -93 185
-73 158 -170 342 -207 393 -34 47 -88 85 -101 72 -4 -4 -9 -448 -12 -988 l-5
-982 -24 -70 c-84 -250 -262 -433 -503 -517 l-93 -33 -390 -3 c-255 -2 -412 1
-455 8 -110 19 -198 54 -307 123 -142 91 -265 265 -316 446 -20 74 -21 100
-27 851 -12 1597 -11 2573 4 2755 17 203 36 355 45 355 3 0 26 -41 51 -91 25
-51 50 -97 55 -103 6 -6 25 -31 42 -56 43 -62 142 -169 192 -205 l41 -30 1
-770 c1 -423 4 -1157 8 -1630 l7 -860 29 -74 c23 -60 42 -88 94 -142 121 -122
180 -139 491 -139 247 0 302 8 393 58 62 33 136 108 171 171 57 106 56 87 56
1051 0 742 3 896 15 955 36 167 126 271 290 335 49 19 79 23 160 23 88 0 109
-4 181 -31 166 -66 289 -217 450 -552 52 -107 101 -208 110 -225 25 -47 184
-335 266 -485 42 -74 174 -315 295 -535 329 -596 341 -617 380 -657 19 -20 65
-51 101 -70 l66 -33 350 0 c345 0 352 0 409 23 177 72 272 297 198 467 -10 22
-148 263 -306 535 -159 272 -312 536 -340 585 -67 117 -323 555 -362 620 -89
149 -235 406 -232 409 2 2 31 10 64 18 133 34 363 112 478 161 469 202 814
554 980 997 86 229 112 393 112 690 0 186 -4 246 -22 345 -126 699 -564 1206
-1236 1429 -217 72 -468 120 -772 146 -155 13 -651 29 -965 32 -141 1 -222 4
-190 8 l55 7 -55 3 c-45 2 -36 4 50 12 58 4 119 7 135 5 17 -2 2 -5 -32 -5
-35 -1 -63 -6 -63 -12 0 -6 58 -9 158 -8 86 1 129 3 94 5 -36 2 -60 8 -57 13
4 6 15 10 26 10 12 0 19 7 19 20 0 16 -7 20 -34 20 -19 0 -38 5 -41 10 -4 6
10 10 34 10 24 0 41 5 41 11 0 8 12 10 35 6 21 -4 40 -1 47 7 7 6 28 11 46 10
30 -2 32 0 32 32 0 33 1 34 39 34 40 0 40 0 43 43 3 42 3 42 41 40 20 -1 37 3
37 8 0 5 -6 9 -12 9 -10 0 -10 2 0 8 8 6 1 9 -20 9 -18 0 -36 -5 -40 -11 -5
-7 -8 -5 -8 5 0 23 21 39 51 39 19 0 30 6 34 21 7 21 11 22 119 17 61 -3 93
-2 71 2 l-40 7 50 3 c28 1 43 4 35 6 -8 2 -103 -2 -210 -10 -107 -7 -175 -14
-151 -15 24 0 42 -4 38 -7 -3 -3 -41 -2 -84 2 l-78 8 50 7 c28 4 82 8 120 9
39 1 84 6 100 9 17 4 -36 6 -117 4 -94 -3 -149 0 -153 7 -8 13 246 13 540 0z
m-1132 -407 c-68 -2 -178 -2 -245 0 -68 1 -13 3 122 3 135 0 190 -2 123 -3z
m-661 -10 c-51 -2 -132 -2 -180 0 -48 1 -6 3 93 3 99 0 138 -2 87 -3z m-313
-7 c-2 -2 -22 -6 -44 -9 -28 -5 -34 -4 -20 3 19 8 73 14 64 6z m-159 -50 c0
-2 -13 -9 -30 -15 -35 -12 -41 -5 -7 9 25 10 37 12 37 6z m-70 -31 c0 -2 -10
-9 -22 -15 -22 -11 -22 -10 -4 4 21 17 26 19 26 11z m-90 -59 c0 -2 -8 -10
-17 -17 -16 -13 -17 -12 -4 4 13 16 21 21 21 13z m-60 -60 c0 -2 -8 -10 -17
-17 -16 -13 -17 -12 -4 4 13 16 21 21 21 13z m-70 -96 c-6 -11 -13 -20 -16
-20 -2 0 0 9 6 20 6 11 13 20 16 20 2 0 0 -9 -6 -20z m1734 4 c114 -9 309 -76
288 -99 -4 -5 -1 -5 5 -1 16 9 90 -41 161 -108 318 -299 372 -855 121 -1230
-44 -66 -144 -171 -213 -224 l-29 -22 47 -41 c63 -55 168 -192 217 -281 159
-290 172 -659 31 -922 -103 -191 -293 -340 -512 -398 -106 -29 -326 -36 -440
-14 -250 47 -498 172 -814 409 -130 98 -211 166 -208 176 1 7 -2 10 -8 6 -21
-13 -383 330 -377 357 2 7 2 10 0 6 -6 -10 -139 123 -179 177 -16 22 -32 42
-35 45 -4 3 -17 23 -29 45 -12 22 -35 63 -51 90 -16 28 -41 75 -55 105 -14 30
-33 70 -41 88 -13 26 -13 38 -4 60 11 25 10 26 -4 8 -14 -19 -15 -18 -16 15
-1 32 -2 32 -9 9 -6 -17 -7 -4 -5 38 2 35 9 70 16 78 6 7 9 21 5 29 -3 8 -2
15 3 15 4 0 8 -26 7 -58 -1 -49 -3 -56 -13 -43 -11 14 -12 14 -12 1 -1 -21 36
-66 45 -57 4 4 2 22 -4 40 -14 39 -15 74 -3 81 9 6 21 -49 21 -96 0 -24 4 -28
30 -28 l30 0 0 80 0 80 90 0 c53 0 90 4 90 10 0 6 -4 10 -8 10 -5 0 -8 24 -8
53 0 28 2 42 4 30 2 -13 8 -23 13 -23 5 0 9 -12 9 -27 0 -19 3 -24 10 -17 7 7
4 25 -10 58 -11 26 -20 62 -19 79 0 26 5 20 25 -37 41 -117 77 -185 135 -251
34 -39 94 -139 77 -129 -7 4 2 -7 20 -25 17 -18 32 -37 32 -43 0 -6 11 -24 25
-42 104 -127 187 -225 213 -250 17 -16 29 -34 25 -39 -3 -6 -2 -7 4 -4 10 6
63 -42 66 -60 1 -4 5 -7 8 -6 3 1 57 -41 120 -94 439 -366 731 -523 973 -523
149 0 288 59 349 148 59 85 71 128 71 257 1 101 -3 131 -22 185 -72 202 -204
334 -524 524 -55 33 -95 63 -91 69 3 6 1 7 -5 3 -11 -6 -121 52 -122 64 0 5
227 136 296 171 85 43 266 164 321 214 34 30 76 80 93 109 38 68 70 190 70
270 -1 139 -55 288 -134 366 -24 24 -43 47 -40 51 2 4 -1 11 -7 15 -8 4 -9 3
-5 -4 12 -19 -9 -14 -40 11 -16 12 -30 20 -31 19 -2 -2 -35 2 -74 8 -142 24
-372 -29 -591 -136 -72 -36 -93 -42 -100 -32 -8 10 -9 9 -5 -3 4 -12 -9 -26
-44 -48 -28 -17 -53 -31 -57 -31 -3 0 -16 -10 -29 -22 -35 -33 -38 -15 -4 21
18 19 35 30 42 25 8 -5 9 -3 4 6 -6 10 -4 12 9 7 11 -5 15 -3 10 5 -5 8 -1 9
12 4 10 -4 15 -3 10 1 -10 10 -56 11 -50 1 3 -4 -7 -10 -22 -14 -17 -4 -29 -2
-35 7 -4 7 -11 10 -16 6 -4 -5 -1 -12 6 -16 10 -6 11 -17 6 -37 -5 -16 -9 -32
-9 -35 -1 -3 -32 -30 -71 -59 -38 -29 -88 -70 -111 -92 -36 -35 -43 -38 -67
-29 -22 9 -27 8 -27 -5 0 -11 6 -13 21 -9 18 6 19 5 8 -14 -8 -11 -15 -19 -16
-17 -4 4 -102 -94 -113 -113 -4 -8 -13 -11 -20 -6 -9 6 -9 9 -1 15 9 5 8 10
-2 18 -11 9 -14 8 -14 -6 0 -9 4 -23 10 -30 7 -9 -4 -27 -39 -65 -27 -28 -53
-52 -58 -52 -5 0 -11 -7 -13 -15 -4 -13 -3 -13 6 0 6 8 11 12 11 8 0 -4 -20
-34 -44 -65 -23 -32 -49 -68 -55 -81 -10 -19 -15 -21 -27 -11 -16 13 -19 55
-4 64 6 3 10 11 10 18 0 7 -5 6 -14 -3 -7 -8 -16 -37 -19 -65 -2 -27 -3 -42 0
-32 2 9 8 17 13 17 20 0 19 -21 -2 -53 -13 -19 -36 -59 -53 -89 -28 -50 -30
-51 -33 -25 -2 15 -8 25 -13 22 -12 -8 -11 11 2 38 9 21 9 21 -5 4 -14 -18
-15 -18 -25 1 -25 47 -51 131 -45 146 9 24 29 14 30 -15 1 -22 3 -31 21 -76 6
-17 6 -17 10 0 3 10 -1 25 -8 33 -6 8 -9 18 -5 21 4 4 11 1 16 -7 7 -11 10 -8
10 13 0 18 -4 26 -11 21 -8 -4 -9 1 -4 17 7 26 40 59 59 59 6 0 17 14 23 30
10 26 16 30 51 30 32 0 42 4 47 20 3 11 11 20 17 20 5 0 8 6 5 14 -3 7 -1 18
5 24 7 7 4 14 -11 24 -22 13 -29 48 -10 48 5 0 7 -5 4 -11 -4 -6 2 -13 14 -16
12 -3 21 -10 21 -16 0 -5 9 0 20 13 11 13 20 27 20 32 0 4 13 8 28 8 36 0 55
35 42 79 -4 16 -6 32 -2 35 11 12 22 5 22 -14 0 -16 7 -20 30 -20 17 0 30 -4
30 -9 0 -5 11 -8 24 -7 13 0 22 4 19 9 -2 4 -12 6 -21 5 -13 -2 -18 6 -20 30
-3 24 -8 32 -23 32 -12 0 -19 5 -16 13 5 14 49 10 59 -7 6 -8 8 -8 8 1 0 6 10
13 22 15 13 2 29 15 36 31 7 15 19 27 26 27 9 0 12 9 8 28 -4 26 -4 26 11 7
l16 -20 -2 20 c-1 11 -11 28 -22 37 -11 10 -15 17 -8 18 6 0 20 -11 31 -25 11
-13 23 -21 27 -17 5 4 5 1 1 -6 -4 -7 -13 -10 -19 -6 -7 3 -3 -2 8 -12 15 -13
16 -15 3 -11 -11 4 -25 -6 -43 -30 -25 -32 -26 -36 -11 -51 11 -11 16 -12 16
-4 0 7 5 10 10 7 6 -3 10 1 10 10 0 10 5 13 12 9 8 -5 9 -2 5 9 -6 16 8 37 41
57 12 8 14 13 5 16 -24 10 -13 33 25 51 20 9 40 21 43 26 4 6 17 7 28 4 20 -5
21 -2 15 30 l-7 36 36 -7 c32 -6 36 -5 30 10 -5 13 -3 15 7 9 10 -6 12 0 7 28
-7 43 8 59 40 42 13 -6 20 -14 17 -18 -3 -3 2 -4 13 -3 10 2 21 -1 24 -6 3 -5
16 -5 30 0 24 9 23 9 -8 16 -30 7 -33 11 -33 46 0 38 1 39 38 42 35 3 37 5 40
40 3 35 5 37 40 40 35 3 37 5 40 41 3 36 4 37 43 37 l39 0 0 42 c0 33 -3 39
-12 30 -7 -7 -17 -12 -22 -12 -6 0 -4 5 4 10 13 8 13 10 -2 10 -9 0 -20 -4
-23 -10 -8 -13 -28 -13 -23 1 2 6 7 10 12 9 5 -1 12 4 16 10 6 10 15 10 40 1
18 -6 46 -11 61 -11 27 0 29 3 29 40 l0 40 80 0 80 0 0 36 c0 31 -3 35 -20 29
-12 -4 -20 -2 -20 6 0 8 -4 9 -13 1 -10 -9 -19 -8 -33 2 -10 7 -31 15 -47 18
-22 4 -25 3 -16 -8 9 -11 7 -14 -9 -14 -11 0 -22 5 -24 12 -3 8 -13 7 -36 -4
-17 -9 -49 -19 -72 -23 -22 -4 -38 -11 -35 -15 6 -9 -18 -19 -62 -24 -48 -6
-105 -34 -97 -47 5 -8 3 -9 -5 -5 -7 5 -26 2 -42 -5 -22 -8 -27 -14 -17 -20 9
-6 7 -8 -7 -8 -11 1 -31 -2 -45 -6 -14 -3 24 18 83 48 60 30 114 54 120 54 40
-1 61 4 49 11 -14 10 139 62 253 88 72 16 234 33 270 28 11 -2 56 -6 99 -10z
m-526 -111 c-10 -2 -26 -2 -35 0 -10 3 -2 5 17 5 19 0 27 -2 18 -5z m-51 -19
c-3 -3 -12 -4 -19 -1 -8 3 -5 6 6 6 11 1 17 -2 13 -5z m60 -9 c0 -9 -9 -14
-24 -13 -23 2 -29 9 -16 21 12 13 40 7 40 -8z m-97 -9 c0 -8 -13 -16 -30 -18
-30 -5 -44 15 -17 25 24 10 47 7 47 -7z m-151 -55 c11 -7 9 -10 -8 -16 -13 -4
-25 -4 -28 -1 -4 3 2 6 13 7 18 0 18 1 -1 9 -13 6 -15 9 -5 9 8 0 21 -3 29 -8z
m-145 -36 c-4 -8 -12 -15 -20 -15 -8 0 -14 -4 -14 -9 0 -5 -14 -12 -30 -16
-18 -4 -27 -11 -24 -17 4 -6 2 -8 -3 -5 -6 4 -18 -2 -28 -13 -10 -11 -23 -20
-30 -20 -6 0 -20 -7 -31 -16 -17 -14 -17 -15 -1 -10 10 3 16 2 12 -3 -3 -5 -2
-11 2 -14 5 -2 1 -2 -7 1 -8 3 -23 5 -32 6 -10 0 -18 1 -18 2 0 4 102 68 156
99 29 17 56 33 60 38 11 11 14 8 8 -8z m-94 -95 c0 -5 -5 -10 -11 -10 -5 0 -7
5 -4 10 3 6 8 10 11 10 2 0 4 -4 4 -10z m-843 -122 c-2 -24 -4 -5 -4 42 0 47
2 66 4 43 2 -24 2 -62 0 -85z m813 102 c0 -5 -4 -10 -10 -10 -5 0 -10 5 -10
10 0 6 5 10 10 10 6 0 10 -4 10 -10z m-166 -75 c-16 -14 -33 -25 -37 -25 -5 0
-5 -5 -1 -12 4 -6 3 -8 -3 -5 -12 7 -75 -42 -68 -53 3 -4 -3 -14 -12 -21 -12
-10 -14 -10 -9 -1 4 6 3 12 -3 12 -6 0 -15 -9 -21 -20 -6 -11 -17 -20 -24 -20
-8 0 -13 -8 -12 -17 0 -10 -6 -18 -15 -18 -23 0 -66 -48 -60 -66 3 -12 2 -12
-12 -1 -14 12 -5 23 75 95 99 89 208 176 222 177 5 0 -4 -11 -20 -25z m46 11
c0 -2 -8 -10 -17 -17 -16 -13 -17 -12 -4 4 13 16 21 21 21 13z m-1123 -98 c-2
-18 -4 -4 -4 32 0 36 2 50 4 33 2 -18 2 -48 0 -65z m1008 2 c-3 -5 -11 -10
-16 -10 -6 0 -7 5 -4 10 3 6 11 10 16 10 6 0 7 -4 4 -10z m28 -17 c3 -5 -6 -9
-20 -10 -19 -1 -22 1 -12 8 17 11 26 11 32 2z m-93 -48 c-7 -8 -17 -15 -23
-15 -6 0 -2 7 9 15 25 19 30 19 14 0z m-523 -167 c-2 -24 -4 -5 -4 42 0 47 2
66 4 43 2 -24 2 -62 0 -85z m433 78 c0 -3 -4 -8 -10 -11 -5 -3 -10 -1 -10 4 0
6 5 11 10 11 6 0 10 -2 10 -4z m-59 -23 c9 -13 9 -15 0 -7 -9 8 -22 1 -54 -31
-103 -104 -147 -154 -147 -165 0 -9 7 -7 20 5 28 26 25 3 -3 -24 l-24 -22 -1
29 c0 20 12 42 44 78 63 70 144 154 148 154 2 0 10 -8 17 -17z m89 8 c0 -5 -7
-12 -16 -15 -14 -5 -15 -4 -4 9 14 17 20 19 20 6z m-99 -58 c-8 -15 -10 -15
-11 -2 0 17 10 32 18 25 2 -3 -1 -13 -7 -23z m-371 -211 c-11 -16 -11 -16 -6
1 3 10 7 51 8 90 l2 72 3 -73 c2 -42 -1 -79 -7 -90z m279 117 c-16 -10 -23 -4
-14 10 3 6 11 8 17 5 6 -4 5 -9 -3 -15z m-123 -83 c0 -13 -3 -23 -6 -21 -3 2
-7 -65 -9 -148 -1 -83 -5 -154 -8 -157 -9 -9 1 305 10 328 13 28 15 28 13 -2z
m61 -22 c-3 -3 -12 -4 -19 -1 -8 3 -5 6 6 6 11 1 17 -2 13 -5z m-630 -96 c-2
-18 -4 -4 -4 32 0 36 2 50 4 33 2 -18 2 -48 0 -65z m432 15 c0 -27 -4 -57 -8
-68 -5 -12 -8 6 -7 47 1 38 4 68 9 68 4 0 7 -21 6 -47z m-22 -25 c-3 -8 -6 -5
-6 6 -1 11 2 17 5 13 3 -3 4 -12 1 -19z m-400 -120 c-2 -13 -4 -3 -4 22 0 25
2 35 4 23 2 -13 2 -33 0 -45z m400 -145 c-2 -37 -3 -9 -3 62 0 72 1 102 3 68
2 -34 2 -93 0 -130z m-370 105 c-3 -8 -6 -5 -6 6 -1 11 2 17 5 13 3 -3 4 -12
1 -19z m30 -10 c-3 -7 -5 -2 -5 12 0 14 2 19 5 13 2 -7 2 -19 0 -25z m-46 -51
c-8 -8 -11 0 -10 29 1 39 1 39 11 11 7 -21 7 -32 -1 -40z m15 -27 c-8 -25 -14
-36 -15 -26 -1 22 22 92 26 79 2 -5 -3 -28 -11 -53z m534 24 c0 -21 -17 -25
-22 -6 -3 11 0 19 8 19 8 0 14 -6 14 -13z m-526 -87 c-3 -8 -1 -24 4 -38 5
-13 6 -33 2 -44 -5 -14 -8 -6 -13 29 -4 26 -4 52 -1 57 8 14 14 11 8 -4z m23
-24 c-3 -10 -5 -4 -5 12 0 17 2 24 5 18 2 -7 2 -21 0 -30z m23 -163 c17 -10
22 -40 7 -40 -8 0 -7 -4 1 -12 7 -7 12 -26 11 -42 0 -22 -9 -5 -30 58 -16 49
-29 97 -28 105 1 9 6 -1 13 -22 6 -21 18 -42 26 -47z m50 28 c0 -22 -17 -41
-29 -34 -19 12 -13 46 9 46 11 0 20 -6 20 -12z m4435 -6403 c99 -21 224 -85
289 -149 119 -115 176 -251 184 -433 13 -314 -149 -554 -433 -639 -43 -13 -93
-18 -175 -18 -99 0 -126 4 -195 28 -256 89 -407 310 -407 596 0 111 20 207 62
296 117 245 397 377 675 319z m-3935 -100 l0 -105 -230 0 -230 0 0 -150 0
-150 205 0 205 0 0 -100 0 -100 -205 0 -205 0 0 -160 0 -160 230 0 230 0 0
-105 0 -105 -355 0 -355 0 0 613 c0 338 3 616 6 619 3 4 163 7 355 8 l349 1 0
-106z m1047 -495 c117 -327 216 -605 219 -617 6 -23 6 -23 -124 -23 l-130 0
-39 118 -40 117 -244 3 -244 2 -41 -117 -41 -118 -127 -3 c-100 -2 -126 0
-126 11 0 13 425 1201 436 1219 3 5 69 7 146 6 l141 -3 214 -595z m1713 35 l0
-565 220 0 220 0 0 -55 0 -55 -280 0 -280 0 0 620 0 620 60 0 60 0 0 -565z
m1818 538 c29 -83 372 -1013 382 -1038 l12 -30 18 50 c10 28 52 140 93 250 41
110 123 331 182 490 59 160 113 293 119 298 19 12 121 2 118 -12 -3 -13 -103
-279 -162 -431 -16 -41 -79 -208 -141 -370 -61 -162 -121 -322 -134 -355 l-23
-60 -70 -3 -70 -3 -20 53 c-11 29 -75 197 -142 373 -232 611 -300 794 -300
804 0 7 25 11 64 11 61 0 65 -1 74 -27z m1712 -28 l0 -55 -260 0 -260 0 0
-225 0 -225 233 -2 232 -3 3 -52 3 -53 -235 0 -236 0 0 -230 0 -230 260 0 260
0 0 -55 0 -55 -320 0 -320 0 0 620 0 620 320 0 320 0 0 -55z m-7467 29 c121
-31 203 -93 253 -191 27 -53 29 -67 29 -163 0 -99 -2 -109 -33 -172 -21 -43
-48 -80 -75 -102 -47 -38 -118 -76 -142 -76 -24 0 -19 -12 44 -117 170 -285
221 -373 221 -383 0 -6 -50 -10 -138 -10 l-139 0 -134 240 -134 239 -57 1 -58
0 -2 -237 -3 -238 -122 -3 -123 -3 0 616 0 615 276 0 c219 0 289 -3 337 -16z
m2817 -499 l0 -515 200 0 200 0 0 -100 0 -100 -322 2 -323 3 -3 613 -2 612
125 0 125 0 0 -515z"/>
<path d="M10258 15813 c12 -2 30 -2 40 0 9 3 -1 5 -23 4 -22 0 -30 -2 -17 -4z"/>
<path d="M10458 15793 c7 -3 16 -2 19 1 4 3 -2 6 -13 5 -11 0 -14 -3 -6 -6z"/>
<path d="M10568 15793 c7 -3 16 -2 19 1 4 3 -2 6 -13 5 -11 0 -14 -3 -6 -6z"/>
<path d="M10778 15783 c7 -3 16 -2 19 1 4 3 -2 6 -13 5 -11 0 -14 -3 -6 -6z"/>
<path d="M10223 15763 c9 -2 23 -2 30 0 6 3 -1 5 -18 5 -16 0 -22 -2 -12 -5z"/>
<path d="M11148 15723 c7 -3 16 -2 19 1 4 3 -2 6 -13 5 -11 0 -14 -3 -6 -6z"/>
<path d="M10008 15433 c7 -3 16 -2 19 1 4 3 -2 6 -13 5 -11 0 -14 -3 -6 -6z"/>
<path d="M10033 15413 c9 -2 25 -2 35 0 9 3 1 5 -18 5 -19 0 -27 -2 -17 -5z"/>
<path d="M7401 12993 c-1 -6 -4 -20 -7 -30 -5 -17 -5 -17 6 0 6 10 9 23 6 30
-3 9 -5 9 -5 0z"/>
<path d="M7391 12864 c0 -11 3 -14 6 -6 3 7 2 16 -1 19 -3 4 -6 -2 -5 -13z"/>
<path d="M9420 15091 c18 -6 1 -9 -60 -10 -47 0 -98 -4 -115 -9 l-30 -9 40 -7
c22 -4 53 -9 68 -12 20 -4 27 -2 25 8 -2 9 17 14 69 19 66 5 114 19 66 19 -11
0 -36 2 -54 5 -29 4 -30 3 -9 -4z m-112 -28 c-10 -2 -26 -2 -35 0 -10 3 -2 5
17 5 19 0 27 -2 18 -5z"/>
<path d="M9563 15080 c15 -5 39 -5 55 0 22 7 17 8 -28 8 -45 0 -50 -1 -27 -8z"/>
<path d="M9698 15073 c6 -2 18 -2 25 0 6 3 1 5 -13 5 -14 0 -19 -2 -12 -5z"/>
<path d="M9361 15056 c10 -9 79 -14 74 -5 -4 5 -22 9 -42 9 -20 0 -34 -2 -32
-4z"/>
<path d="M9925 14980 c-4 -6 1 -7 11 -3 12 4 15 3 10 -5 -5 -8 -2 -10 9 -5 13
5 14 7 3 14 -17 11 -26 11 -33 -1z"/>
<path d="M10120 14825 c13 -14 25 -25 27 -25 9 0 -33 49 -41 50 -5 0 1 -11 14
-25z"/>
<path d="M10186 14747 c3 -10 9 -15 12 -12 3 3 0 11 -7 18 -10 9 -11 8 -5 -6z"/>
<path d="M9295 14700 c-13 -6 -15 -9 -5 -9 8 0 22 4 30 9 18 12 2 12 -25 0z"/>
<path d="M9438 14698 c5 -5 16 -8 23 -6 8 3 3 7 -10 11 -17 4 -21 3 -13 -5z"/>
<path d="M9628 14703 c6 -2 18 -2 25 0 6 3 1 5 -13 5 -14 0 -19 -2 -12 -5z"/>
<path d="M9398 14683 c6 -2 18 -2 25 0 6 3 1 5 -13 5 -14 0 -19 -2 -12 -5z"/>
<path d="M9618 14683 c7 -3 16 -2 19 1 4 3 -2 6 -13 5 -11 0 -14 -3 -6 -6z"/>
<path d="M9318 14673 c7 -3 16 -2 19 1 4 3 -2 6 -13 5 -11 0 -14 -3 -6 -6z"/>
<path d="M9030 14630 c0 -23 66 -48 82 -32 6 6 18 8 27 5 14 -4 14 -3 1 6 -9
6 -18 7 -24 1 -16 -16 -31 -12 -60 15 -23 22 -26 22 -26 5z"/>
<path d="M9060 14641 c0 -9 30 -24 36 -18 2 1 -6 8 -16 15 -11 7 -20 8 -20 3z"/>
<path d="M9040 14580 c0 -13 5 -18 15 -14 12 5 13 10 4 20 -15 19 -19 18 -19
-6z"/>
<path d="M8964 14544 c9 -10 32 -6 53 10 1 1 -13 2 -31 2 -25 0 -30 -3 -22
-12z"/>
<path d="M8936 14524 c-11 -8 -16 -14 -10 -14 13 0 39 18 34 24 -3 2 -14 -2
-24 -10z"/>
<path d="M8650 14380 c0 -5 4 -10 9 -10 6 0 13 5 16 10 3 6 -1 10 -9 10 -9 0
-16 -4 -16 -10z"/>
<path d="M8680 14365 c-16 -19 -1 -19 24 0 16 12 17 15 4 15 -8 0 -21 -7 -28
-15z"/>
<path d="M8620 14313 c-18 -7 -54 -43 -43 -43 4 1 22 12 38 25 31 25 31 28 5
18z"/>
<path d="M8480 14236 c0 -2 8 -10 18 -17 15 -13 16 -12 3 4 -13 16 -21 21 -21
13z"/>
<path d="M8354 14089 c-3 -6 -1 -16 6 -22 10 -9 11 -9 6 1 -4 6 -2 12 3 12 6
0 11 5 11 10 0 13 -17 13 -26 -1z"/>
<path d="M8244 13988 c21 -32 28 -36 19 -11 -5 12 -2 15 9 11 8 -4 21 -2 29 3
9 5 4 7 -16 5 -17 -1 -36 2 -44 8 -10 7 -8 1 3 -16z"/>
<path d="M8181 13898 c15 -27 27 -30 25 -5 0 14 -7 23 -18 23 -12 0 -14 -4 -7
-18z"/>
<path d="M8160 13888 c0 -9 6 -18 13 -21 9 -3 9 -8 -2 -21 -8 -9 -11 -19 -8
-22 3 -3 10 4 17 15 8 17 8 26 -5 43 -12 18 -15 19 -15 6z"/>
<path d="M8127 13803 c-4 -3 -7 -13 -7 -22 1 -13 3 -13 11 2 11 19 8 33 -4 20z"/>
<path d="M8010 13633 c0 -5 5 -15 10 -23 8 -12 10 -11 10 8 0 12 -4 22 -10 22
-5 0 -10 -3 -10 -7z"/>
<path d="M7851 13454 c0 -11 3 -14 6 -6 3 7 2 16 -1 19 -3 4 -6 -2 -5 -13z"/>
<path d="M7926 13367 c3 -10 9 -15 12 -12 3 3 0 11 -7 18 -10 9 -11 8 -5 -6z"/>
<path d="M7941 13324 c0 -11 3 -14 6 -6 3 7 2 16 -1 19 -3 4 -6 -2 -5 -13z"/>
<path d="M7976 13297 c3 -10 9 -15 12 -12 3 3 0 11 -7 18 -10 9 -11 8 -5 -6z"/>
<path d="M8010 13226 c0 -2 8 -10 18 -17 15 -13 16 -12 3 4 -13 16 -21 21 -21
13z"/>
<path d="M8077 13137 c-3 -8 1 -14 8 -14 7 0 11 6 8 14 -3 7 -6 13 -8 13 -2 0
-5 -6 -8 -13z"/>
<path d="M8205 12980 c10 -11 20 -20 23 -20 3 0 -3 9 -13 20 -10 11 -20 20
-23 20 -3 0 3 -9 13 -20z"/>
<path d="M11686 7074 c-166 -40 -291 -163 -340 -334 -38 -135 -26 -301 32
-423 135 -289 534 -357 761 -130 98 99 142 219 142 389 0 262 -140 451 -370
500 -82 17 -149 17 -225 -2z"/>
<path d="M8600 6642 l-85 -247 169 -3 c93 -1 171 -1 173 1 2 3 -33 108 -77
236 -44 127 -80 235 -80 240 0 6 -3 12 -8 15 -4 2 -46 -107 -92 -242z"/>
<path d="M6460 6800 l0 -182 143 4 c162 4 190 13 229 75 34 55 33 155 -2 205
-40 59 -76 71 -232 76 l-138 4 0 -182z"/>
</g>
</svg>
